<svg width="356" height="291" viewBox="0 0 356 291" fill="none" xmlns="http://www.w3.org/2000/svg">
<path fill-rule="evenodd" clip-rule="evenodd" d="M165.446 327.265C165.446 307.745 165.671 255.57 165.16 249.141C165.605 171.503 105.723 116.736 67.8922 121.006C41.7145 123.147 19.7709 133.21 7.99589 162.156C-2.92671 189.133 6.83899 225.016 43.1384 233.436C81.9483 242.479 104.618 250.002 121.02 260.616C141.119 273.611 157.526 298.438 157.961 327.296" fill="#E4EDFF" fill-opacity="0.46"/>
<path fill-rule="evenodd" clip-rule="evenodd" d="M149.224 327.293C149.351 302.272 134.536 280.147 115.173 268.257C97.9977 257.749 74.9394 250.848 37.7408 241.951C26.2421 239.178 14.2141 233.019 10.4905 225.168C0.640456 234.524 -1.14875 255.559 0.58425 267.855C2.59828 282.077 20.2327 305.522 46.7852 306.44C63.0004 307.054 83.5014 303.151 93.3327 301.182C110.293 297.729 137.126 307.743 141.398 327.263" fill="#E4EDFF" fill-opacity="0.46"/>
<path fill-rule="evenodd" clip-rule="evenodd" d="M179.162 0C134.137 0 95.2518 27.9884 95.3876 76.4194C95.5281 117.146 130.272 138.948 142.675 154.521C161.41 177.988 171.551 205.765 172.6 248.266C173.424 282.091 173.382 315.493 173.565 327.33H183.499C183.33 314.945 182.881 279.486 183.391 247.219C184.066 204.705 194.572 177.988 213.316 154.521C225.826 138.948 260.538 117.146 260.613 76.4194C260.786 27.9884 221.916 0 176.937 0" fill="#E4EDFF" fill-opacity="0.46"/>
<path fill-rule="evenodd" clip-rule="evenodd" d="M190.586 327.265C190.586 307.745 190.352 255.57 190.853 249.141C190.413 171.503 250.257 116.736 288.121 121.006C314.299 123.147 336.214 133.21 348.027 162.156C358.935 189.133 349.118 225.016 312.866 233.436C274.028 242.479 251.391 250.002 234.946 260.616C214.871 273.611 199.612 298.438 199.143 327.296" fill="#E4EDFF" fill-opacity="0.46"/>
<path fill-rule="evenodd" clip-rule="evenodd" d="M206.797 327.293C206.657 302.272 221.467 280.147 240.773 268.257C258.024 257.749 281.105 250.848 318.271 241.951C329.793 239.178 341.807 233.019 345.465 225.168C355.362 234.524 357.151 255.559 355.414 267.855C353.362 282.077 335.77 305.522 309.264 306.44C293.058 307.054 272.445 303.151 262.656 301.182C245.762 297.729 218.853 307.743 214.563 327.263" fill="#E4EDFF" fill-opacity="0.46"/>
</svg>
